<?xml version="1.0" encoding="UTF-8"?>
<svg xmlns="http://www.w3.org/2000/svg" version="1.1" width="500" height="500" viewBox="0 0 500 500"><g transform="scale(20)"><g transform="translate(0,0)"><g><g transform="translate(3.5,3.5)"><path fill-rule="evenodd" d="M-3.5 -3.5L-3.5 3.5L3.5 3.5L3.5 -3.5ZM-2.5 -2.5L-2.5 2.5L2.5 2.5L2.5 -2.5Z" fill="#34435e"/><path fill-rule="evenodd" d="M-1.5 -1.5L-1.5 1.5L1.5 1.5L1.5 -1.5Z" fill="#34435e"/></g></g><g><g transform="translate(21.5,3.5)"><g transform="rotate(90)"><path fill-rule="evenodd" d="M-3.5 -3.5L-3.5 3.5L3.5 3.5L3.5 -3.5ZM-2.5 -2.5L-2.5 2.5L2.5 2.5L2.5 -2.5Z" fill="#34435e"/><path fill-rule="evenodd" d="M-1.5 -1.5L-1.5 1.5L1.5 1.5L1.5 -1.5Z" fill="#34435e"/></g></g></g><g><g transform="translate(3.5,21.5)"><g transform="rotate(-90)"><path fill-rule="evenodd" d="M-3.5 -3.5L-3.5 3.5L3.5 3.5L3.5 -3.5ZM-2.5 -2.5L-2.5 2.5L2.5 2.5L2.5 -2.5Z" fill="#34435e"/><path fill-rule="evenodd" d="M-1.5 -1.5L-1.5 1.5L1.5 1.5L1.5 -1.5Z" fill="#34435e"/></g></g></g><path fill-rule="evenodd" d="M9 0L9 1L8 1L8 2L9 2L9 3L8 3L8 4L10 4L10 1L13 1L13 3L12 3L12 2L11 2L11 3L12 3L12 4L11 4L11 5L10 5L10 7L11 7L11 8L6 8L6 9L5 9L5 8L0 8L0 9L1 9L1 10L0 10L0 17L1 17L1 14L3 14L3 12L5 12L5 11L7 11L7 12L6 12L6 13L5 13L5 14L4 14L4 16L5 16L5 17L8 17L8 19L9 19L9 18L10 18L10 20L12 20L12 22L11 22L11 21L9 21L9 20L8 20L8 25L11 25L11 24L12 24L12 22L13 22L13 23L15 23L15 24L16 24L16 25L17 25L17 24L22 24L22 25L25 25L25 24L24 24L24 23L25 23L25 21L23 21L23 22L22 22L22 23L21 23L21 21L22 21L22 19L25 19L25 15L24 15L24 14L25 14L25 12L23 12L23 13L24 13L24 14L22 14L22 15L23 15L23 16L24 16L24 18L22 18L22 19L21 19L21 17L22 17L22 16L17 16L17 15L19 15L19 14L20 14L20 15L21 15L21 13L22 13L22 12L19 12L19 13L18 13L18 12L17 12L17 11L19 11L19 10L20 10L20 11L21 11L21 9L22 9L22 8L21 8L21 9L20 9L20 8L19 8L19 10L18 10L18 8L17 8L17 5L13 5L13 4L17 4L17 0L15 0L15 2L16 2L16 3L14 3L14 1L13 1L13 0ZM8 5L8 7L9 7L9 5ZM11 5L11 7L12 7L12 8L11 8L11 9L10 9L10 11L12 11L12 12L10 12L10 13L9 13L9 11L8 11L8 12L7 12L7 13L6 13L6 14L5 14L5 15L6 15L6 16L8 16L8 17L10 17L10 18L11 18L11 19L12 19L12 20L13 20L13 22L14 22L14 20L15 20L15 21L16 21L16 20L15 20L15 19L16 19L16 17L15 17L15 19L14 19L14 20L13 20L13 18L14 18L14 17L13 17L13 14L14 14L14 16L16 16L16 15L17 15L17 14L18 14L18 13L17 13L17 12L16 12L16 11L17 11L17 10L16 10L16 11L15 11L15 12L16 12L16 13L15 13L15 14L14 14L14 11L12 11L12 9L13 9L13 10L15 10L15 8L16 8L16 6L15 6L15 8L14 8L14 6L13 6L13 5ZM12 6L12 7L13 7L13 6ZM13 8L13 9L14 9L14 8ZM23 8L23 9L24 9L24 10L25 10L25 9L24 9L24 8ZM2 9L2 10L1 10L1 12L2 12L2 10L4 10L4 9ZM6 9L6 10L7 10L7 9ZM22 10L22 11L23 11L23 10ZM10 13L10 14L12 14L12 13ZM6 14L6 15L8 15L8 16L9 16L9 14ZM15 14L15 15L16 15L16 14ZM11 15L11 16L12 16L12 15ZM2 16L2 17L3 17L3 16ZM12 17L12 18L13 18L13 17ZM17 17L17 20L20 20L20 17ZM18 18L18 19L19 19L19 18ZM17 21L17 22L15 22L15 23L17 23L17 22L19 22L19 23L20 23L20 21ZM9 22L9 24L11 24L11 23L10 23L10 22ZM23 22L23 23L22 23L22 24L23 24L23 23L24 23L24 22Z" fill="#40798c"/></g></g></svg>
