<svg width="512" height="512" viewBox="0 0 512 512" fill="none" xmlns="http://www.w3.org/2000/svg">
<rect x="50" y="50" width="412" height="412" rx="80" fill="white"/>
<path d="M291.96 237.694L306.179 245.822L334.626 229.567L291.96 204.172V237.694Z" fill="#F15F2C"/>
<path d="M378.312 185.876L388.472 167.593C396.595 153.365 373.237 137.11 362.057 131.023C350.877 124.922 325.487 111.715 317.359 126.959L303.131 151.342C288.903 148.294 272.647 146.262 256.397 146.262C172.072 146.258 104.002 191.981 104.002 247.859C104.002 303.728 172.072 349.446 256.397 349.446C256.397 349.446 256.397 349.446 257.417 349.446C258.433 361.638 244.21 381.957 223.886 392.112C304.156 392.112 340.726 332.17 340.726 332.17C381.36 313.883 407.775 283.404 407.775 247.845C409.807 224.487 397.616 203.152 378.312 185.876ZM174.099 276.306C165.971 276.306 159.875 270.201 159.875 262.073C159.875 253.945 165.971 247.85 174.099 247.85C182.227 247.85 188.322 253.945 188.322 262.073C188.322 270.201 181.22 276.306 174.099 276.306ZM211.69 276.306C203.562 276.306 197.466 270.201 197.466 262.073C197.466 253.945 203.562 247.85 211.69 247.85C219.817 247.85 225.913 253.945 225.913 262.073C225.913 270.201 219.817 276.306 211.69 276.306ZM249.285 276.306C241.157 276.306 235.057 270.201 235.057 262.073C235.057 253.945 241.157 247.85 249.285 247.85C257.413 247.85 263.508 253.945 263.508 262.073C263.508 270.201 257.413 276.306 249.285 276.306ZM339.71 232.615L310.247 248.87L285.86 262.073V234.647V201.12L326.503 131.018C328.53 126.954 342.758 131.018 357.993 139.146C373.228 147.274 383.392 157.429 380.344 161.497L339.71 232.615Z" fill="#F15F2C"/>
</svg>
