<svg width="512" height="512" viewBox="0 0 512 512" fill="none" xmlns="http://www.w3.org/2000/svg">
<rect x="50" y="50" width="412" height="412" rx="80" fill="white"/>
<path d="M161.161 279.258L203.226 133.581H267.871L254.839 178.742C254.71 179 254.581 179.258 254.452 179.516L220.129 298.742H252.129C238.71 332.161 228.258 358.355 220.774 377.323C161.677 376.677 145.161 334.355 159.613 284.29M221.032 377.452L298.968 265.323H265.935L294.71 193.452C344 198.613 367.226 237.452 353.548 284.419C338.968 334.871 279.871 377.452 222.322 377.452C221.806 377.452 221.419 377.452 221.032 377.452Z" fill="url(#paint0_linear_1005_287)"/>
<defs>
<linearGradient id="paint0_linear_1005_287" x1="291.197" y1="165.256" x2="207.983" y2="449.037" gradientUnits="userSpaceOnUse">
<stop stop-color="#EF7829"/>
<stop offset="0.0518954" stop-color="#F07529"/>
<stop offset="0.3551" stop-color="#F0672B"/>
<stop offset="0.6673" stop-color="#F15E2C"/>
<stop offset="1" stop-color="#F15A2C"/>
</linearGradient>
</defs>
</svg>
