<svg width="512" height="512" viewBox="0 0 512 512" fill="none" xmlns="http://www.w3.org/2000/svg">
<rect x="50" y="50" width="412" height="412" rx="80" fill="white"/>
<path d="M320.278 248.5C320.278 283.723 291.723 312.278 256.5 312.278C221.276 312.278 192.722 283.723 192.722 248.5C192.722 213.276 221.276 184.722 256.5 184.722C291.723 184.722 320.278 213.276 320.278 248.5ZM320.278 248.5V272.417C320.278 294.431 338.124 312.278 360.139 312.278C382.153 312.278 400 294.431 400 272.417V248.5C400 169.247 335.753 105 256.5 105C177.247 105 113 169.247 113 248.5C113 327.753 177.247 392 256.5 392H320.278" stroke="#BDBDBD" stroke-width="28" stroke-linecap="round" stroke-linejoin="round"/>
</svg>
