<svg width="512" height="512" viewBox="0 0 512 512" fill="none" xmlns="http://www.w3.org/2000/svg">
<rect x="50" y="50" width="412" height="412" rx="80" fill="white"/>
<path d="M397.495 171.303C393.1 138.639 364.632 112.898 330.885 107.91C325.191 107.067 303.62 104 253.649 104H253.275C203.29 104 192.567 107.067 186.873 107.91C154.066 112.76 124.105 135.89 116.836 168.94C113.34 185.217 112.967 203.262 113.616 219.814C114.542 243.552 114.722 267.248 116.877 290.889C118.368 306.593 120.968 322.171 124.658 337.508C131.568 365.832 159.538 389.404 186.942 399.021C216.282 409.049 247.835 410.714 278.067 403.829C281.393 403.056 284.678 402.158 287.921 401.135C295.272 398.8 303.882 396.188 310.211 391.601C310.298 391.537 310.369 391.453 310.419 391.358C310.47 391.262 310.498 391.157 310.502 391.048V368.14C310.5 368.039 310.476 367.94 310.431 367.849C310.386 367.759 310.322 367.679 310.242 367.617C310.163 367.555 310.07 367.511 309.971 367.489C309.873 367.467 309.771 367.468 309.673 367.49C290.303 372.117 270.454 374.436 250.539 374.399C216.267 374.399 207.049 358.137 204.41 351.366C202.288 345.515 200.941 339.411 200.402 333.21C200.397 333.107 200.416 333.002 200.458 332.907C200.5 332.812 200.564 332.728 200.645 332.662C200.726 332.596 200.821 332.55 200.923 332.528C201.025 332.505 201.13 332.507 201.231 332.534C220.278 337.128 239.803 339.447 259.397 339.442C264.109 339.442 268.808 339.442 273.521 339.318C293.227 338.765 313.998 337.756 333.386 333.97C333.87 333.874 334.354 333.791 334.768 333.666C365.351 327.794 394.454 309.362 397.412 262.688C397.522 260.851 397.799 243.442 397.799 241.535C397.812 235.054 399.886 195.565 397.495 171.303Z" fill="url(#paint0_linear_1005_285)"/>
<path d="M349.044 208.001V289.148H316.887V210.391C316.887 193.811 309.977 185.355 295.922 185.355C280.472 185.355 272.733 195.358 272.733 215.117V258.226H240.769V215.117C240.769 195.358 233.016 185.355 217.566 185.355C203.595 185.355 196.616 193.811 196.616 210.391V289.148H164.472V208.001C164.472 191.42 168.705 178.248 177.172 168.484C185.906 158.743 197.362 153.741 211.582 153.741C228.041 153.741 240.479 160.069 248.77 172.712L256.772 186.142L264.787 172.712C273.079 160.069 285.516 153.741 301.947 153.741C316.154 153.741 327.61 158.743 336.372 168.484C344.829 178.239 349.053 191.411 349.044 208.001Z" fill="white"/>
<defs>
<linearGradient id="paint0_linear_1005_285" x1="256" y1="104" x2="256" y2="408" gradientUnits="userSpaceOnUse">
<stop stop-color="#6364FF"/>
<stop offset="1" stop-color="#563ACC"/>
</linearGradient>
</defs>
</svg>
