<svg width="512" height="512" viewBox="0 0 512 512" fill="none" xmlns="http://www.w3.org/2000/svg">
<rect x="50" y="50" width="412" height="412" rx="80" fill="white"/>
<g clip-path="url(#clip0_1005_282)">
<path d="M256 408C339.947 408 408 339.947 408 256C408 172.053 339.947 104 256 104C172.053 104 104 172.053 104 256C104 339.947 172.053 408 256 408Z" fill="#34AADF"/>
<path d="M167.261 254.682C167.261 254.682 243.261 223.491 269.619 212.509C279.723 208.116 313.989 194.058 313.989 194.058C313.989 194.058 329.804 187.908 328.486 202.844C328.046 208.994 324.532 230.52 321.018 253.803C315.746 286.751 310.035 322.774 310.035 322.774C310.035 322.774 309.156 332.879 301.688 334.636C294.22 336.393 281.919 328.486 279.723 326.728C277.965 325.411 246.775 305.641 235.353 295.977C232.278 293.341 228.764 288.07 235.792 281.919C251.607 267.422 270.497 249.411 281.919 237.989C287.191 232.717 292.462 220.416 270.497 235.352C239.307 256.879 208.555 277.087 208.555 277.087C208.555 277.087 201.526 281.479 188.347 277.526C175.168 273.572 159.792 268.3 159.792 268.3C159.792 268.3 149.249 261.711 167.261 254.682Z" fill="white"/>
</g>
<defs>
<clipPath id="clip0_1005_282">
<rect width="304" height="304" fill="white" transform="translate(104 104)"/>
</clipPath>
</defs>
</svg>
