<svg width="512" height="512" viewBox="0 0 512 512" fill="none" xmlns="http://www.w3.org/2000/svg">
<rect x="50" y="50" width="412" height="412" rx="80" fill="white"/>
<path d="M211.754 111.525H300.396C381.362 111.525 400.475 130.788 400.475 211.754V300.396C400.475 381.362 381.212 400.475 300.245 400.475H211.604C130.637 400.475 111.524 381.212 111.524 300.246V211.604C111.524 130.788 130.788 111.525 211.754 111.525Z" fill="#5181B8"/>
<mask id="mask0_1005_286" style="mask-type:luminance" maskUnits="userSpaceOnUse" x="111" y="111" width="290" height="290">
<path d="M211.754 111.525H300.396C381.362 111.525 400.475 130.788 400.475 211.754V300.396C400.475 381.362 381.212 400.475 300.245 400.475H211.604C130.637 400.475 111.524 381.212 111.524 300.246V211.604C111.524 130.788 130.788 111.525 211.754 111.525Z" fill="white"/>
</mask>
<g mask="url(#mask0_1005_286)">
<path d="M104 104H408V408H104V104Z" fill="#5181B8"/>
</g>
<path fill-rule="evenodd" clip-rule="evenodd" d="M348.103 211.002C349.458 206.487 348.103 203.327 341.782 203.327H320.713C315.295 203.327 312.887 206.186 311.533 209.347C311.533 209.347 300.848 235.533 285.648 252.388C280.681 257.355 278.574 258.859 275.866 258.859C274.511 258.859 272.555 257.355 272.555 252.84V211.002C272.555 205.584 271.05 203.327 266.535 203.327H233.426C230.115 203.327 228.008 205.885 228.008 208.143C228.008 213.259 235.533 214.463 236.436 228.61V259.612C236.436 266.384 235.232 267.588 232.523 267.588C225.45 267.588 207.992 241.402 197.759 211.303C195.652 205.735 193.695 203.327 188.277 203.327H167.208C161.188 203.327 159.984 206.186 159.984 209.347C159.984 214.915 167.058 242.606 193.244 279.176C210.701 304.158 235.232 317.703 257.505 317.703C270.899 317.703 272.555 314.693 272.555 309.576V290.614C272.555 284.594 273.759 283.39 278.123 283.39C281.283 283.39 286.551 284.895 299.042 296.935C313.339 311.232 315.747 317.703 323.723 317.703H344.792C350.812 317.703 353.822 314.693 352.016 308.824C350.06 302.955 343.287 294.376 334.258 284.143C329.291 278.273 321.917 272.103 319.81 268.943C316.65 264.879 317.553 263.073 319.81 259.612C319.81 259.461 345.545 223.343 348.103 211.002Z" fill="white"/>
</svg>
