<svg width="85" height="85" viewBox="0 0 85 85" fill="none" xmlns="http://www.w3.org/2000/svg">
<path d="M21.582 8.80078H63.418C70.4769 8.80078 76.1992 14.5231 76.1992 21.582V63.418C76.1992 70.4769 70.4769 76.1992 63.418 76.1992H21.582C14.5231 76.1992 8.80078 70.4769 8.80078 63.418V21.582C8.80078 14.5231 14.5231 8.80078 21.582 8.80078Z" fill="white" stroke="#BDBDBD"/>
<path d="M48.4707 39.4609L50.8313 40.8103L55.5539 38.1117L48.4707 33.8958V39.4609Z" fill="#F15F2C"/>
<path d="M62.8052 30.8583L64.4919 27.8231C65.8404 25.461 61.9627 22.7625 60.1066 21.7519C58.2506 20.7391 54.0355 18.5465 52.6861 21.0772L50.324 25.1252C47.962 24.6192 45.2632 24.2818 42.5655 24.2818C28.5663 24.2812 17.2656 31.8719 17.2656 41.1484C17.2656 50.4235 28.5663 58.0134 42.5655 58.0134C42.5655 58.0134 42.5655 58.0134 42.7348 58.0134C42.9035 60.0374 40.5423 63.4107 37.1682 65.0966C50.4942 65.0966 56.5654 55.1453 56.5654 55.1453C63.3112 52.1094 67.6965 47.0494 67.6965 41.1461C68.0338 37.2683 66.0099 33.7264 62.8052 30.8583ZM28.9028 45.8711C27.5534 45.8711 26.5414 44.8575 26.5414 43.5082C26.5414 42.1588 27.5534 41.1469 28.9028 41.1469C30.2521 41.1469 31.264 42.1588 31.264 43.5082C31.264 44.8575 30.085 45.8711 28.9028 45.8711ZM35.1434 45.8711C33.7941 45.8711 32.782 44.8575 32.782 43.5082C32.782 42.1588 33.7941 41.1469 35.1434 41.1469C36.4926 41.1469 37.5047 42.1588 37.5047 43.5082C37.5047 44.8575 36.4926 45.8711 35.1434 45.8711ZM41.3848 45.8711C40.0354 45.8711 39.0227 44.8575 39.0227 43.5082C39.0227 42.1588 40.0354 41.1469 41.3848 41.1469C42.7341 41.1469 43.746 42.1588 43.746 43.5082C43.746 44.8575 42.7341 45.8711 41.3848 45.8711ZM56.3967 38.6177L51.5054 41.3163L47.4568 43.5082V38.955V33.3891L54.2041 21.7511C54.5406 21.0764 56.9027 21.7511 59.4319 23.1005C61.9612 24.4498 63.6485 26.1357 63.1425 26.8111L56.3967 38.6177Z" fill="#F15F2C"/>
</svg>
