<svg width="85" height="85" viewBox="0 0 85 85" fill="none" xmlns="http://www.w3.org/2000/svg">
<path d="M21.582 8.80078H63.418C70.4769 8.80078 76.1992 14.5231 76.1992 21.582V63.418C76.1992 70.4769 70.4769 76.1992 63.418 76.1992H21.582C14.5231 76.1992 8.80078 70.4769 8.80078 63.418V21.582C8.80078 14.5231 14.5231 8.80078 21.582 8.80078Z" fill="white" stroke="#BDBDBD"/>
<path d="M26.7554 46.3611L33.7389 22.1765H44.471L42.3075 29.6739C42.2861 29.7167 42.2647 29.7596 42.2432 29.8024L36.5451 49.5958H41.8576C39.6298 55.1438 37.8946 59.4925 36.6521 62.6414C26.841 62.5342 24.0991 55.5081 26.4984 47.1965M36.695 62.6629L49.6336 44.0477H44.1496L48.9267 32.116C57.1097 32.9728 60.9656 39.4207 58.6948 47.2179C56.2743 55.5938 46.4632 62.6629 36.9091 62.6629C36.8235 62.6629 36.7592 62.6629 36.695 62.6629Z" fill="url(#paint0_linear_1005_306)"/>
<defs>
<linearGradient id="paint0_linear_1005_306" x1="48.3435" y1="27.435" x2="34.5288" y2="74.5471" gradientUnits="userSpaceOnUse">
<stop stop-color="#EF7829"/>
<stop offset="0.0518954" stop-color="#F07529"/>
<stop offset="0.3551" stop-color="#F0672B"/>
<stop offset="0.6673" stop-color="#F15E2C"/>
<stop offset="1" stop-color="#F15A2C"/>
</linearGradient>
</defs>
</svg>
