<svg width="85" height="85" viewBox="0 0 85 85" fill="none" xmlns="http://www.w3.org/2000/svg">
<path d="M21.582 8.80078H63.418C70.4769 8.80078 76.1992 14.5231 76.1992 21.582V63.418C76.1992 70.4769 70.4769 76.1992 63.418 76.1992H21.582C14.5231 76.1992 8.80078 70.4769 8.80078 63.418V21.582C8.80078 14.5231 14.5231 8.80078 21.582 8.80078Z" fill="white" stroke="#BDBDBD"/>
<path d="M53.1712 41.2549C53.1712 47.1025 48.4306 51.843 42.583 51.843C36.7353 51.843 31.9949 47.1025 31.9949 41.2549C31.9949 35.4071 36.7353 30.6667 42.583 30.6667C48.4306 30.6667 53.1712 35.4071 53.1712 41.2549ZM53.1712 41.2549V45.2255C53.1712 48.8801 56.1339 51.843 59.7887 51.843C63.4434 51.843 66.4062 48.8801 66.4062 45.2255V41.2549C66.4062 28.0976 55.7402 17.4316 42.583 17.4316C29.4258 17.4316 18.7598 28.0976 18.7598 41.2549C18.7598 54.4121 29.4258 65.0781 42.583 65.0781H53.1712" stroke="#BDBDBD" stroke-width="4" stroke-linecap="round" stroke-linejoin="round"/>
</svg>
