<svg width="85" height="85" viewBox="0 0 85 85" fill="none" xmlns="http://www.w3.org/2000/svg">
<path d="M21.582 8.80078H63.418C70.4769 8.80078 76.1992 14.5231 76.1992 21.582V63.418C76.1992 70.4769 70.4769 76.1992 63.418 76.1992H21.582C14.5231 76.1992 8.80078 70.4769 8.80078 63.418V21.582C8.80078 14.5231 14.5231 8.80078 21.582 8.80078Z" fill="white" stroke="#BDBDBD"/>
<path d="M65.9904 28.439C65.2607 23.0162 60.5346 18.7428 54.932 17.9147C53.9868 17.7748 50.4056 17.2656 42.1096 17.2656H42.0475C33.7492 17.2656 31.969 17.7748 31.0237 17.9147C25.5773 18.7199 20.6033 22.5599 19.3965 28.0467C18.8161 30.7489 18.7542 33.7446 18.8619 36.4925C19.0156 40.4334 19.0455 44.3673 19.4033 48.2921C19.6508 50.8992 20.0825 53.4854 20.6951 56.0316C21.8422 60.7338 26.4857 64.6471 31.0352 66.2437C35.9061 67.9085 41.1444 68.1849 46.1634 67.0419C46.7156 66.9135 47.2609 66.7645 47.7993 66.5946C49.0197 66.207 50.4491 65.7733 51.4998 65.0118C51.5143 65.0012 51.5261 64.9873 51.5344 64.9715C51.5428 64.9555 51.5475 64.9381 51.5481 64.92V61.1169C51.5478 61.1002 51.5438 61.0837 51.5364 61.0686C51.5289 61.0537 51.5183 61.0404 51.505 61.0301C51.4919 61.0198 51.4764 61.0125 51.46 61.0089C51.4437 61.0052 51.4268 61.0054 51.4105 61.009C48.1948 61.7772 44.8995 62.1622 41.5933 62.156C35.9036 62.156 34.3733 59.4563 33.9352 58.3322C33.5829 57.3608 33.3593 56.3475 33.2698 55.318C33.2689 55.3009 33.2721 55.2835 33.2791 55.2677C33.286 55.2519 33.2967 55.238 33.3101 55.227C33.3236 55.2161 33.3393 55.2085 33.3563 55.2048C33.3732 55.201 33.3906 55.2013 33.4074 55.2058C36.5695 55.9685 39.811 56.3535 43.0639 56.3526C43.8462 56.3526 44.6263 56.3526 45.4087 56.332C48.6802 56.2402 52.1285 56.0727 55.3472 55.4442C55.4276 55.4283 55.508 55.4145 55.5767 55.3937C60.654 54.4189 65.4855 51.3589 65.9766 43.6103C65.9949 43.3053 66.0408 40.4151 66.0408 40.0986C66.043 39.0226 66.3873 32.4668 65.9904 28.439Z" fill="url(#paint0_linear_1005_320)"/>
<path d="M57.9466 34.5314V48.0031H52.608V34.9281C52.608 32.1756 51.4609 30.7718 49.1275 30.7718C46.5625 30.7718 45.2778 32.4324 45.2778 35.7127V42.8695H39.9712V35.7127C39.9712 32.4324 38.6841 30.7718 36.1191 30.7718C33.7997 30.7718 32.6411 32.1756 32.6411 34.9281V48.0031H27.3047V34.5314C27.3047 31.7786 28.0074 29.5919 29.4131 27.9709C30.8631 26.3537 32.765 25.5233 35.1257 25.5233C37.8582 25.5233 39.9231 26.5739 41.2995 28.6728L42.628 30.9024L43.9586 28.6728C45.3352 26.5739 47.3999 25.5233 50.1277 25.5233C52.4863 25.5233 54.3882 26.3537 55.8428 27.9709C57.2468 29.5904 57.9481 31.7772 57.9466 34.5314Z" fill="white"/>
<defs>
<linearGradient id="paint0_linear_1005_320" x1="42.4999" y1="17.2656" x2="42.4999" y2="67.7343" gradientUnits="userSpaceOnUse">
<stop stop-color="#6364FF"/>
<stop offset="1" stop-color="#563ACC"/>
</linearGradient>
</defs>
</svg>
