<svg width="85" height="85" viewBox="0 0 85 85" fill="none" xmlns="http://www.w3.org/2000/svg">
<path d="M21.582 8.80078H63.418C70.4769 8.80078 76.1992 14.5231 76.1992 21.582V63.418C76.1992 70.4769 70.4769 76.1992 63.418 76.1992H21.582C14.5231 76.1992 8.80078 70.4769 8.80078 63.418V21.582C8.80078 14.5231 14.5231 8.80078 21.582 8.80078Z" fill="white" stroke="#BDBDBD"/>
<mask id="mask0_1005_309" style="mask-type:luminance" maskUnits="userSpaceOnUse" x="17" y="17" width="51" height="51">
<path d="M67.7344 17.2656H17.2656V67.7344H67.7344V17.2656Z" fill="white"/>
</mask>
<g mask="url(#mask0_1005_309)">
<path d="M42.5 67.7344C56.4365 67.7344 67.7344 56.4365 67.7344 42.5C67.7344 28.5635 56.4365 17.2656 42.5 17.2656C28.5635 17.2656 17.2656 28.5635 17.2656 42.5C17.2656 56.4365 28.5635 67.7344 42.5 67.7344Z" fill="#34AADF"/>
<path d="M27.7686 42.2812C27.7686 42.2812 40.3858 37.103 44.7617 35.2798C46.4391 34.5505 52.1278 32.2167 52.1278 32.2167C52.1278 32.2167 54.7534 31.1957 54.5346 33.6753C54.4615 34.6963 53.8782 38.2699 53.2948 42.1352C52.4195 47.6051 51.4714 53.5855 51.4714 53.5855C51.4714 53.5855 51.3255 55.263 50.0857 55.5547C48.8459 55.8464 46.8037 54.5337 46.4391 54.2419C46.1473 54.0232 40.9692 50.7411 39.073 49.1367C38.5625 48.6991 37.9791 47.8241 39.1459 46.8029C41.7714 44.3962 44.9075 41.4061 46.8037 39.5099C47.6789 38.6346 48.554 36.5925 44.9075 39.0721C39.7294 42.6459 34.6241 46.0007 34.6241 46.0007C34.6241 46.0007 33.4571 46.7299 31.2692 46.0736C29.0813 45.4172 26.5286 44.5419 26.5286 44.5419C26.5286 44.5419 24.7783 43.4481 27.7686 42.2812Z" fill="white"/>
</g>
</svg>
