<svg width="85" height="85" viewBox="0 0 85 85" fill="none" xmlns="http://www.w3.org/2000/svg">
<path d="M21.582 8.80078H63.418C70.4769 8.80078 76.1992 14.5231 76.1992 21.582V63.418C76.1992 70.4769 70.4769 76.1992 63.418 76.1992H21.582C14.5231 76.1992 8.80078 70.4769 8.80078 63.418V21.582C8.80078 14.5231 14.5231 8.80078 21.582 8.80078Z" fill="white" stroke="#BDBDBD"/>
<path d="M35.1553 18.515H49.8712C63.3127 18.515 66.4857 21.713 66.4857 35.1545V49.8705C66.4857 63.312 63.2878 66.4851 49.8461 66.4851H35.1304C21.6887 66.4851 18.5156 63.2871 18.5156 49.8456V35.1296C18.5156 21.713 21.7137 18.515 35.1553 18.515Z" fill="#5181B8"/>
<mask id="mask0_1005_297" style="mask-type:luminance" maskUnits="userSpaceOnUse" x="18" y="18" width="49" height="49">
<path d="M35.1553 18.515H49.8712C63.3127 18.515 66.4857 21.713 66.4857 35.1545V49.8705C66.4857 63.312 63.2878 66.4851 49.8461 66.4851H35.1304C21.6887 66.4851 18.5156 63.2871 18.5156 49.8456V35.1296C18.5156 21.713 21.7137 18.515 35.1553 18.515Z" fill="white"/>
</mask>
<g mask="url(#mask0_1005_297)">
<path d="M17.2656 17.2656H67.7344V67.7344H17.2656V17.2656Z" fill="#5181B8"/>
</g>
<path fill-rule="evenodd" clip-rule="evenodd" d="M57.7911 35.0295C58.016 34.28 57.7911 33.7554 56.7417 33.7554H53.2439C52.3445 33.7554 51.9447 34.23 51.7199 34.7548C51.7199 34.7548 49.9461 39.1021 47.4226 41.9003C46.598 42.7249 46.2482 42.9746 45.7987 42.9746C45.5737 42.9746 45.249 42.7249 45.249 41.9754V35.0295C45.249 34.1301 44.9991 33.7554 44.2496 33.7554H38.753C38.2033 33.7554 37.8535 34.18 37.8535 34.5549C37.8535 35.4043 39.1028 35.6041 39.2527 37.9528V43.0996C39.2527 44.2239 39.0528 44.4238 38.6031 44.4238C37.4289 44.4238 34.5306 40.0765 32.8318 35.0795C32.482 34.1551 32.1571 33.7554 31.2576 33.7554H27.7598C26.7604 33.7554 26.5605 34.23 26.5605 34.7548C26.5605 35.6792 27.7349 40.2763 32.0822 46.3476C34.9803 50.495 39.0528 52.7437 42.7505 52.7437C44.9741 52.7437 45.249 52.244 45.249 51.3945V48.2465C45.249 47.2471 45.4489 47.0472 46.1734 47.0472C46.698 47.0472 47.5725 47.297 49.6462 49.2959C52.0197 51.6694 52.4195 52.7437 53.7436 52.7437H57.2414C58.2408 52.7437 58.7405 52.244 58.4407 51.2696C58.116 50.2953 56.9916 48.871 55.4926 47.1722C54.668 46.1977 53.4438 45.1733 53.094 44.6487C52.5694 43.974 52.7193 43.6742 53.094 43.0996C53.094 43.0746 57.3664 37.0784 57.7911 35.0295Z" fill="white"/>
</svg>
